<?xml version="1.0" encoding="UTF-8" standalone="no"?>
<!DOCTYPE svg PUBLIC "-//W3C//DTD SVG 1.1//EN"
 "http://www.w3.org/Graphics/SVG/1.1/DTD/svg11.dtd">
<!-- Generated by graphviz version 2.40.1 (20161225.0304)
 -->
<!-- Title: orders Pages: 1 -->
<svg width="685pt" height="1199pt"
 viewBox="0.00 0.00 685.00 1199.00" xmlns="http://www.w3.org/2000/svg" xmlns:xlink="http://www.w3.org/1999/xlink">
<g id="graph0" class="graph" transform="scale(1 1) rotate(0) translate(4 1195)">
<title>orders</title>
<polygon fill="#ffffff" stroke="transparent" points="-4,4 -4,-1195 681,-1195 681,4 -4,4"/>
<!-- orders -->
<g id="node1" class="node">
<title>orders</title>
<polygon fill="#efefef" stroke="transparent" points="272,-742.5 272,-777.5 437,-777.5 437,-742.5 272,-742.5"/>
<polygon fill="none" stroke="#000000" points="272,-742.5 272,-777.5 437,-777.5 437,-742.5 272,-742.5"/>
<text text-anchor="start" x="280.3716" y="-755.3" font-family="Arial Bold" font-size="18.00" fill="#000000">orders</text>
<text text-anchor="start" x="331.3746" y="-755.3" font-family="Arial" font-size="14.00" fill="#000000"> </text>
<text text-anchor="start" x="335.2652" y="-755.3" font-family="Arial" font-size="14.00" fill="#666666">[BASE TABLE]</text>
<polygon fill="none" stroke="#000000" points="272,-712.5 272,-742.5 437,-742.5 437,-712.5 272,-712.5"/>
<text text-anchor="start" x="279" y="-723.9" font-family="Arial" font-size="14.00" fill="#000000">id </text>
<text text-anchor="start" x="293.7798" y="-723.9" font-family="Arial" font-size="14.00" fill="#666666">[bigint unsigned]</text>
<polygon fill="none" stroke="#000000" points="272,-682.5 272,-712.5 437,-712.5 437,-682.5 272,-682.5"/>
<text text-anchor="start" x="278.6431" y="-693.9" font-family="Arial" font-size="14.00" fill="#000000">user_id </text>
<text text-anchor="start" x="328.4313" y="-693.9" font-family="Arial" font-size="14.00" fill="#666666">[bigint unsigned]</text>
<polygon fill="none" stroke="#000000" points="272,-652.5 272,-682.5 437,-682.5 437,-652.5 272,-652.5"/>
<text text-anchor="start" x="279" y="-663.9" font-family="Arial" font-size="14.00" fill="#000000">order_date </text>
<text text-anchor="start" x="350.5806" y="-663.9" font-family="Arial" font-size="14.00" fill="#666666">[date]</text>
<polygon fill="none" stroke="#000000" points="272,-622.5 272,-652.5 437,-652.5 437,-622.5 272,-622.5"/>
<text text-anchor="start" x="279" y="-633.9" font-family="Arial" font-size="14.00" fill="#000000">status </text>
<text text-anchor="start" x="320.237" y="-633.9" font-family="Arial" font-size="14.00" fill="#666666">[int]</text>
<polygon fill="none" stroke="#000000" points="272,-592.5 272,-622.5 437,-622.5 437,-592.5 272,-592.5"/>
<text text-anchor="start" x="279" y="-603.9" font-family="Arial" font-size="14.00" fill="#000000">total_price </text>
<text text-anchor="start" x="347.4586" y="-603.9" font-family="Arial" font-size="14.00" fill="#666666">[int]</text>
<polygon fill="none" stroke="#000000" points="272,-562.5 272,-592.5 437,-592.5 437,-562.5 272,-562.5"/>
<text text-anchor="start" x="279" y="-573.9" font-family="Arial" font-size="14.00" fill="#000000">memo </text>
<text text-anchor="start" x="321.777" y="-573.9" font-family="Arial" font-size="14.00" fill="#666666">[varchar(255)]</text>
<polygon fill="none" stroke="#000000" points="272,-532.5 272,-562.5 437,-562.5 437,-532.5 272,-532.5"/>
<text text-anchor="start" x="279" y="-543.9" font-family="Arial" font-size="14.00" fill="#000000">created_at </text>
<text text-anchor="start" x="349.028" y="-543.9" font-family="Arial" font-size="14.00" fill="#666666">[timestamp]</text>
<polygon fill="none" stroke="#000000" points="272,-502.5 272,-532.5 437,-532.5 437,-502.5 272,-502.5"/>
<text text-anchor="start" x="279" y="-513.9" font-family="Arial" font-size="14.00" fill="#000000">updated_at </text>
<text text-anchor="start" x="352.9326" y="-513.9" font-family="Arial" font-size="14.00" fill="#666666">[timestamp]</text>
<polygon fill="none" stroke="#000000" stroke-width="3" points="270,-501.5 270,-779.5 438,-779.5 438,-501.5 270,-501.5"/>
</g>
<!-- users -->
<g id="node3" class="node">
<title>users</title>
<polygon fill="#efefef" stroke="transparent" points="241,-342.5 241,-377.5 469,-377.5 469,-342.5 241,-342.5"/>
<polygon fill="none" stroke="#000000" points="241,-342.5 241,-377.5 469,-377.5 469,-342.5 241,-342.5"/>
<text text-anchor="start" x="284.3708" y="-355.3" font-family="Arial Bold" font-size="18.00" fill="#000000">users</text>
<text text-anchor="start" x="328.3754" y="-355.3" font-family="Arial" font-size="14.00" fill="#000000"> </text>
<text text-anchor="start" x="332.266" y="-355.3" font-family="Arial" font-size="14.00" fill="#666666">[BASE TABLE]</text>
<polygon fill="none" stroke="#000000" points="241,-312.5 241,-342.5 469,-342.5 469,-312.5 241,-312.5"/>
<text text-anchor="start" x="248" y="-323.9" font-family="Arial" font-size="14.00" fill="#000000">id </text>
<text text-anchor="start" x="262.7798" y="-323.9" font-family="Arial" font-size="14.00" fill="#666666">[bigint unsigned]</text>
<polygon fill="none" stroke="#000000" points="241,-282.5 241,-312.5 469,-312.5 469,-282.5 241,-282.5"/>
<text text-anchor="start" x="248" y="-293.9" font-family="Arial" font-size="14.00" fill="#000000">first_name </text>
<text text-anchor="start" x="317.23" y="-293.9" font-family="Arial" font-size="14.00" fill="#666666">[varchar(255)]</text>
<polygon fill="none" stroke="#000000" points="241,-252.5 241,-282.5 469,-282.5 469,-252.5 241,-252.5"/>
<text text-anchor="start" x="248" y="-263.9" font-family="Arial" font-size="14.00" fill="#000000">last_name </text>
<text text-anchor="start" x="316.4614" y="-263.9" font-family="Arial" font-size="14.00" fill="#666666">[varchar(255)]</text>
<polygon fill="none" stroke="#000000" points="241,-222.5 241,-252.5 469,-252.5 469,-222.5 241,-222.5"/>
<text text-anchor="start" x="247.6487" y="-233.9" font-family="Arial" font-size="14.00" fill="#000000">first_name_furigana </text>
<text text-anchor="start" x="375.2321" y="-233.9" font-family="Arial" font-size="14.00" fill="#666666">[varchar(255)]</text>
<polygon fill="none" stroke="#000000" points="241,-192.5 241,-222.5 469,-222.5 469,-192.5 241,-192.5"/>
<text text-anchor="start" x="248" y="-203.9" font-family="Arial" font-size="14.00" fill="#000000">last_name_furigana </text>
<text text-anchor="start" x="374.8148" y="-203.9" font-family="Arial" font-size="14.00" fill="#666666">[varchar(255)]</text>
<polygon fill="none" stroke="#000000" points="241,-162.5 241,-192.5 469,-192.5 469,-162.5 241,-162.5"/>
<text text-anchor="start" x="248" y="-173.9" font-family="Arial" font-size="14.00" fill="#000000">age </text>
<text text-anchor="start" x="275.2384" y="-173.9" font-family="Arial" font-size="14.00" fill="#666666">[int]</text>
<polygon fill="none" stroke="#000000" points="241,-132.5 241,-162.5 469,-162.5 469,-132.5 241,-132.5"/>
<text text-anchor="start" x="248" y="-143.9" font-family="Arial" font-size="14.00" fill="#000000">email </text>
<text text-anchor="start" x="285.3296" y="-143.9" font-family="Arial" font-size="14.00" fill="#666666">[varchar(255)]</text>
<polygon fill="none" stroke="#000000" points="241,-102.5 241,-132.5 469,-132.5 469,-102.5 241,-102.5"/>
<text text-anchor="start" x="248" y="-113.9" font-family="Arial" font-size="14.00" fill="#000000">remember_token </text>
<text text-anchor="start" x="357.6844" y="-113.9" font-family="Arial" font-size="14.00" fill="#666666">[varchar(100)]</text>
<polygon fill="none" stroke="#000000" points="241,-72.5 241,-102.5 469,-102.5 469,-72.5 241,-72.5"/>
<text text-anchor="start" x="248" y="-83.9" font-family="Arial" font-size="14.00" fill="#000000">created_at </text>
<text text-anchor="start" x="318.028" y="-83.9" font-family="Arial" font-size="14.00" fill="#666666">[timestamp]</text>
<polygon fill="none" stroke="#000000" points="241,-42.5 241,-72.5 469,-72.5 469,-42.5 241,-42.5"/>
<text text-anchor="start" x="248" y="-53.9" font-family="Arial" font-size="14.00" fill="#000000">updated_at </text>
<text text-anchor="start" x="321.9326" y="-53.9" font-family="Arial" font-size="14.00" fill="#666666">[timestamp]</text>
</g>
<!-- orders&#45;&gt;users -->
<g id="edge2" class="edge">
<title>orders:user_id&#45;&gt;users:id</title>
<path fill="none" stroke="#000000" d="M447.1706,-696.9848C541.301,-687.067 503.1435,-536.3988 437,-457 380.3111,-388.9506 297.6889,-489.0494 241,-421 214.402,-389.0718 199.4444,-327.5 241,-327.5"/>
<polygon fill="#000000" stroke="#000000" points="446.9872,-696.994 436.7723,-693.0058 441.9936,-697.247 437,-697.5 437,-697.5 437,-697.5 441.9936,-697.247 437.2277,-701.9942 446.9872,-696.994 446.9872,-696.994"/>
<text text-anchor="start" x="443.945" y="-707.5" font-family="Arial" font-size="10.00" fill="#000000">FOREIGN KEY (user_id) REFERENCES users (id)</text>
</g>
<!-- order_details -->
<g id="node2" class="node">
<title>order_details</title>
<polygon fill="#efefef" stroke="transparent" points="247,-1112.5 247,-1147.5 462,-1147.5 462,-1112.5 247,-1112.5"/>
<polygon fill="none" stroke="#000000" points="247,-1112.5 247,-1147.5 462,-1147.5 462,-1112.5 247,-1112.5"/>
<text text-anchor="start" x="253.8639" y="-1125.3" font-family="Arial Bold" font-size="18.00" fill="#000000">order_details</text>
<text text-anchor="start" x="357.8823" y="-1125.3" font-family="Arial" font-size="14.00" fill="#000000"> </text>
<text text-anchor="start" x="361.7729" y="-1125.3" font-family="Arial" font-size="14.00" fill="#666666">[BASE TABLE]</text>
<polygon fill="none" stroke="#000000" points="247,-1082.5 247,-1112.5 462,-1112.5 462,-1082.5 247,-1082.5"/>
<text text-anchor="start" x="254" y="-1093.9" font-family="Arial" font-size="14.00" fill="#000000">id </text>
<text text-anchor="start" x="268.7798" y="-1093.9" font-family="Arial" font-size="14.00" fill="#666666">[bigint unsigned]</text>
<polygon fill="none" stroke="#000000" points="247,-1052.5 247,-1082.5 462,-1082.5 462,-1052.5 247,-1052.5"/>
<text text-anchor="start" x="254" y="-1063.9" font-family="Arial" font-size="14.00" fill="#000000">order_id </text>
<text text-anchor="start" x="309.2314" y="-1063.9" font-family="Arial" font-size="14.00" fill="#666666">[bigint unsigned]</text>
<polygon fill="none" stroke="#000000" points="247,-1022.5 247,-1052.5 462,-1052.5 462,-1022.5 247,-1022.5"/>
<text text-anchor="start" x="254" y="-1033.9" font-family="Arial" font-size="14.00" fill="#000000">product_id </text>
<text text-anchor="start" x="323.244" y="-1033.9" font-family="Arial" font-size="14.00" fill="#666666">[bigint unsigned]</text>
<polygon fill="none" stroke="#000000" points="247,-992.5 247,-1022.5 462,-1022.5 462,-992.5 247,-992.5"/>
<text text-anchor="start" x="254" y="-1003.9" font-family="Arial" font-size="14.00" fill="#000000">line_id </text>
<text text-anchor="start" x="298.3408" y="-1003.9" font-family="Arial" font-size="14.00" fill="#666666">[int]</text>
<polygon fill="none" stroke="#000000" points="247,-962.5 247,-992.5 462,-992.5 462,-962.5 247,-962.5"/>
<text text-anchor="start" x="254" y="-973.9" font-family="Arial" font-size="14.00" fill="#000000">quantity </text>
<text text-anchor="start" x="306.9088" y="-973.9" font-family="Arial" font-size="14.00" fill="#666666">[int]</text>
<polygon fill="none" stroke="#000000" points="247,-932.5 247,-962.5 462,-962.5 462,-932.5 247,-932.5"/>
<text text-anchor="start" x="254" y="-943.9" font-family="Arial" font-size="14.00" fill="#000000">created_at </text>
<text text-anchor="start" x="324.028" y="-943.9" font-family="Arial" font-size="14.00" fill="#666666">[timestamp]</text>
<polygon fill="none" stroke="#000000" points="247,-902.5 247,-932.5 462,-932.5 462,-902.5 247,-902.5"/>
<text text-anchor="start" x="254" y="-913.9" font-family="Arial" font-size="14.00" fill="#000000">updated_at </text>
<text text-anchor="start" x="327.9326" y="-913.9" font-family="Arial" font-size="14.00" fill="#666666">[timestamp]</text>
</g>
<!-- order_details&#45;&gt;orders -->
<g id="edge1" class="edge">
<title>order_details:order_id&#45;&gt;orders:id</title>
<path fill="none" stroke="#000000" d="M237.0054,-1065.3288C173.6958,-1036.3721 199.7917,-727.5 272,-727.5"/>
<polygon fill="#000000" stroke="#000000" points="237.2279,-1065.3771 246.0447,-1071.8974 242.114,-1066.4385 247,-1067.5 247,-1067.5 247,-1067.5 242.114,-1066.4385 247.9553,-1063.1026 237.2279,-1065.3771 237.2279,-1065.3771"/>
<text text-anchor="start" x="7.057" y="-1077.5" font-family="Arial" font-size="10.00" fill="#000000">FOREIGN KEY (order_id) REFERENCES orders (id)</text>
</g>
</g>
</svg>
