<?xml version="1.0" encoding="UTF-8" standalone="no"?>
<!DOCTYPE svg PUBLIC "-//W3C//DTD SVG 1.1//EN"
 "http://www.w3.org/Graphics/SVG/1.1/DTD/svg11.dtd">
<!-- Generated by graphviz version 2.40.1 (20161225.0304)
 -->
<!-- Title: order_details Pages: 1 -->
<svg width="737pt" height="742pt"
 viewBox="0.00 0.00 737.00 742.00" xmlns="http://www.w3.org/2000/svg" xmlns:xlink="http://www.w3.org/1999/xlink">
<g id="graph0" class="graph" transform="scale(1 1) rotate(0) translate(4 738)">
<title>order_details</title>
<polygon fill="#ffffff" stroke="transparent" points="-4,4 -4,-738 733,-738 733,4 -4,4"/>
<!-- order_details -->
<g id="node1" class="node">
<title>order_details</title>
<polygon fill="#efefef" stroke="transparent" points="247,-652.5 247,-687.5 462,-687.5 462,-652.5 247,-652.5"/>
<polygon fill="none" stroke="#000000" points="247,-652.5 247,-687.5 462,-687.5 462,-652.5 247,-652.5"/>
<text text-anchor="start" x="253.8639" y="-665.3" font-family="Arial Bold" font-size="18.00" fill="#000000">order_details</text>
<text text-anchor="start" x="357.8823" y="-665.3" font-family="Arial" font-size="14.00" fill="#000000"> </text>
<text text-anchor="start" x="361.7729" y="-665.3" font-family="Arial" font-size="14.00" fill="#666666">[BASE TABLE]</text>
<polygon fill="none" stroke="#000000" points="247,-622.5 247,-652.5 462,-652.5 462,-622.5 247,-622.5"/>
<text text-anchor="start" x="254" y="-633.9" font-family="Arial" font-size="14.00" fill="#000000">id </text>
<text text-anchor="start" x="268.7798" y="-633.9" font-family="Arial" font-size="14.00" fill="#666666">[bigint unsigned]</text>
<polygon fill="none" stroke="#000000" points="247,-592.5 247,-622.5 462,-622.5 462,-592.5 247,-592.5"/>
<text text-anchor="start" x="254" y="-603.9" font-family="Arial" font-size="14.00" fill="#000000">order_id </text>
<text text-anchor="start" x="309.2314" y="-603.9" font-family="Arial" font-size="14.00" fill="#666666">[bigint unsigned]</text>
<polygon fill="none" stroke="#000000" points="247,-562.5 247,-592.5 462,-592.5 462,-562.5 247,-562.5"/>
<text text-anchor="start" x="254" y="-573.9" font-family="Arial" font-size="14.00" fill="#000000">product_id </text>
<text text-anchor="start" x="323.244" y="-573.9" font-family="Arial" font-size="14.00" fill="#666666">[bigint unsigned]</text>
<polygon fill="none" stroke="#000000" points="247,-532.5 247,-562.5 462,-562.5 462,-532.5 247,-532.5"/>
<text text-anchor="start" x="254" y="-543.9" font-family="Arial" font-size="14.00" fill="#000000">line_id </text>
<text text-anchor="start" x="298.3408" y="-543.9" font-family="Arial" font-size="14.00" fill="#666666">[int]</text>
<polygon fill="none" stroke="#000000" points="247,-502.5 247,-532.5 462,-532.5 462,-502.5 247,-502.5"/>
<text text-anchor="start" x="254" y="-513.9" font-family="Arial" font-size="14.00" fill="#000000">quantity </text>
<text text-anchor="start" x="306.9088" y="-513.9" font-family="Arial" font-size="14.00" fill="#666666">[int]</text>
<polygon fill="none" stroke="#000000" points="247,-472.5 247,-502.5 462,-502.5 462,-472.5 247,-472.5"/>
<text text-anchor="start" x="254" y="-483.9" font-family="Arial" font-size="14.00" fill="#000000">created_at </text>
<text text-anchor="start" x="324.028" y="-483.9" font-family="Arial" font-size="14.00" fill="#666666">[timestamp]</text>
<polygon fill="none" stroke="#000000" points="247,-442.5 247,-472.5 462,-472.5 462,-442.5 247,-442.5"/>
<text text-anchor="start" x="254" y="-453.9" font-family="Arial" font-size="14.00" fill="#000000">updated_at </text>
<text text-anchor="start" x="327.9326" y="-453.9" font-family="Arial" font-size="14.00" fill="#666666">[timestamp]</text>
<polygon fill="none" stroke="#000000" stroke-width="3" points="245,-441.5 245,-689.5 463,-689.5 463,-441.5 245,-441.5"/>
</g>
<!-- orders -->
<g id="node2" class="node">
<title>orders</title>
<polygon fill="#efefef" stroke="transparent" points="134,-282.5 134,-317.5 299,-317.5 299,-282.5 134,-282.5"/>
<polygon fill="none" stroke="#000000" points="134,-282.5 134,-317.5 299,-317.5 299,-282.5 134,-282.5"/>
<text text-anchor="start" x="142.3716" y="-295.3" font-family="Arial Bold" font-size="18.00" fill="#000000">orders</text>
<text text-anchor="start" x="193.3746" y="-295.3" font-family="Arial" font-size="14.00" fill="#000000"> </text>
<text text-anchor="start" x="197.2652" y="-295.3" font-family="Arial" font-size="14.00" fill="#666666">[BASE TABLE]</text>
<polygon fill="none" stroke="#000000" points="134,-252.5 134,-282.5 299,-282.5 299,-252.5 134,-252.5"/>
<text text-anchor="start" x="141" y="-263.9" font-family="Arial" font-size="14.00" fill="#000000">id </text>
<text text-anchor="start" x="155.7798" y="-263.9" font-family="Arial" font-size="14.00" fill="#666666">[bigint unsigned]</text>
<polygon fill="none" stroke="#000000" points="134,-222.5 134,-252.5 299,-252.5 299,-222.5 134,-222.5"/>
<text text-anchor="start" x="140.6431" y="-233.9" font-family="Arial" font-size="14.00" fill="#000000">user_id </text>
<text text-anchor="start" x="190.4313" y="-233.9" font-family="Arial" font-size="14.00" fill="#666666">[bigint unsigned]</text>
<polygon fill="none" stroke="#000000" points="134,-192.5 134,-222.5 299,-222.5 299,-192.5 134,-192.5"/>
<text text-anchor="start" x="141" y="-203.9" font-family="Arial" font-size="14.00" fill="#000000">order_date </text>
<text text-anchor="start" x="212.5806" y="-203.9" font-family="Arial" font-size="14.00" fill="#666666">[date]</text>
<polygon fill="none" stroke="#000000" points="134,-162.5 134,-192.5 299,-192.5 299,-162.5 134,-162.5"/>
<text text-anchor="start" x="141" y="-173.9" font-family="Arial" font-size="14.00" fill="#000000">status </text>
<text text-anchor="start" x="182.237" y="-173.9" font-family="Arial" font-size="14.00" fill="#666666">[int]</text>
<polygon fill="none" stroke="#000000" points="134,-132.5 134,-162.5 299,-162.5 299,-132.5 134,-132.5"/>
<text text-anchor="start" x="141" y="-143.9" font-family="Arial" font-size="14.00" fill="#000000">total_price </text>
<text text-anchor="start" x="209.4586" y="-143.9" font-family="Arial" font-size="14.00" fill="#666666">[int]</text>
<polygon fill="none" stroke="#000000" points="134,-102.5 134,-132.5 299,-132.5 299,-102.5 134,-102.5"/>
<text text-anchor="start" x="141" y="-113.9" font-family="Arial" font-size="14.00" fill="#000000">memo </text>
<text text-anchor="start" x="183.777" y="-113.9" font-family="Arial" font-size="14.00" fill="#666666">[varchar(255)]</text>
<polygon fill="none" stroke="#000000" points="134,-72.5 134,-102.5 299,-102.5 299,-72.5 134,-72.5"/>
<text text-anchor="start" x="141" y="-83.9" font-family="Arial" font-size="14.00" fill="#000000">created_at </text>
<text text-anchor="start" x="211.028" y="-83.9" font-family="Arial" font-size="14.00" fill="#666666">[timestamp]</text>
<polygon fill="none" stroke="#000000" points="134,-42.5 134,-72.5 299,-72.5 299,-42.5 134,-42.5"/>
<text text-anchor="start" x="141" y="-53.9" font-family="Arial" font-size="14.00" fill="#000000">updated_at </text>
<text text-anchor="start" x="214.9326" y="-53.9" font-family="Arial" font-size="14.00" fill="#666666">[timestamp]</text>
</g>
<!-- order_details&#45;&gt;orders -->
<g id="edge1" class="edge">
<title>order_details:order_id&#45;&gt;orders:id</title>
<path fill="none" stroke="#000000" d="M236.6853,-606.926C157.3511,-597.5972 205.2763,-476.6325 247,-397 260.0456,-372.1015 285.9544,-385.8985 299,-361 318.2862,-324.1909 340.5556,-267.5 299,-267.5"/>
<polygon fill="#000000" stroke="#000000" points="237.0154,-606.9443 246.7499,-611.993 242.0077,-607.2222 247,-607.5 247,-607.5 247,-607.5 242.0077,-607.2222 247.2501,-603.007 237.0154,-606.9443 237.0154,-606.9443"/>
<text text-anchor="start" x="7.057" y="-617.5" font-family="Arial" font-size="10.00" fill="#000000">FOREIGN KEY (order_id) REFERENCES orders (id)</text>
</g>
<!-- products -->
<g id="node3" class="node">
<title>products</title>
<polygon fill="#efefef" stroke="transparent" points="403,-237.5 403,-272.5 583,-272.5 583,-237.5 403,-237.5"/>
<polygon fill="none" stroke="#000000" points="403,-237.5 403,-272.5 583,-272.5 583,-237.5 403,-237.5"/>
<text text-anchor="start" x="409.8635" y="-250.3" font-family="Arial Bold" font-size="18.00" fill="#000000">products</text>
<text text-anchor="start" x="478.8827" y="-250.3" font-family="Arial" font-size="14.00" fill="#000000"> </text>
<text text-anchor="start" x="482.7733" y="-250.3" font-family="Arial" font-size="14.00" fill="#666666">[BASE TABLE]</text>
<polygon fill="none" stroke="#000000" points="403,-207.5 403,-237.5 583,-237.5 583,-207.5 403,-207.5"/>
<text text-anchor="start" x="410" y="-218.9" font-family="Arial" font-size="14.00" fill="#000000">id </text>
<text text-anchor="start" x="424.7798" y="-218.9" font-family="Arial" font-size="14.00" fill="#666666">[bigint unsigned]</text>
<polygon fill="none" stroke="#000000" points="403,-177.5 403,-207.5 583,-207.5 583,-177.5 403,-177.5"/>
<text text-anchor="start" x="410" y="-188.9" font-family="Arial" font-size="14.00" fill="#000000">name </text>
<text text-anchor="start" x="448.899" y="-188.9" font-family="Arial" font-size="14.00" fill="#666666">[varchar(255)]</text>
<polygon fill="none" stroke="#000000" points="403,-147.5 403,-177.5 583,-177.5 583,-147.5 403,-147.5"/>
<text text-anchor="start" x="410" y="-158.9" font-family="Arial" font-size="14.00" fill="#000000">price </text>
<text text-anchor="start" x="444.223" y="-158.9" font-family="Arial" font-size="14.00" fill="#666666">[int]</text>
<polygon fill="none" stroke="#000000" points="403,-117.5 403,-147.5 583,-147.5 583,-117.5 403,-117.5"/>
<text text-anchor="start" x="410" y="-128.9" font-family="Arial" font-size="14.00" fill="#000000">created_at </text>
<text text-anchor="start" x="480.028" y="-128.9" font-family="Arial" font-size="14.00" fill="#666666">[timestamp]</text>
<polygon fill="none" stroke="#000000" points="403,-87.5 403,-117.5 583,-117.5 583,-87.5 403,-87.5"/>
<text text-anchor="start" x="410" y="-98.9" font-family="Arial" font-size="14.00" fill="#000000">updated_at </text>
<text text-anchor="start" x="483.9326" y="-98.9" font-family="Arial" font-size="14.00" fill="#666666">[timestamp]</text>
</g>
<!-- order_details&#45;&gt;products -->
<g id="edge2" class="edge">
<title>order_details:product_id&#45;&gt;products:id</title>
<path fill="none" stroke="#000000" d="M472.0053,-576.881C537.3078,-568.1929 485.7205,-469.8542 462,-397 448.2114,-354.6505 416.7886,-358.3495 403,-316 390.1347,-276.4861 361.4444,-222.5 403,-222.5"/>
<polygon fill="#000000" stroke="#000000" points="471.9809,-576.8825 461.7221,-573.0086 466.9905,-577.1912 462,-577.5 462,-577.5 462,-577.5 466.9905,-577.1912 462.2779,-581.9914 471.9809,-576.8825 471.9809,-576.8825"/>
<text text-anchor="start" x="469.048" y="-587.5" font-family="Arial" font-size="10.00" fill="#000000">FOREIGN KEY (product_id) REFERENCES products (id)</text>
</g>
</g>
</svg>
