<?xml version="1.0" encoding="UTF-8" standalone="no"?>
<!DOCTYPE svg PUBLIC "-//W3C//DTD SVG 1.1//EN"
 "http://www.w3.org/Graphics/SVG/1.1/DTD/svg11.dtd">
<!-- Generated by graphviz version 2.40.1 (20161225.0304)
 -->
<!-- Title: products Pages: 1 -->
<svg width="534pt" height="652pt"
 viewBox="0.00 0.00 533.50 652.00" xmlns="http://www.w3.org/2000/svg" xmlns:xlink="http://www.w3.org/1999/xlink">
<g id="graph0" class="graph" transform="scale(1 1) rotate(0) translate(4 648)">
<title>products</title>
<polygon fill="#ffffff" stroke="transparent" points="-4,4 -4,-648 529.5,-648 529.5,4 -4,4"/>
<!-- products -->
<g id="node1" class="node">
<title>products</title>
<polygon fill="#efefef" stroke="transparent" points="61.5,-195.5 61.5,-230.5 241.5,-230.5 241.5,-195.5 61.5,-195.5"/>
<polygon fill="none" stroke="#000000" points="61.5,-195.5 61.5,-230.5 241.5,-230.5 241.5,-195.5 61.5,-195.5"/>
<text text-anchor="start" x="68.3635" y="-208.3" font-family="Arial Bold" font-size="18.00" fill="#000000">products</text>
<text text-anchor="start" x="137.3827" y="-208.3" font-family="Arial" font-size="14.00" fill="#000000"> </text>
<text text-anchor="start" x="141.2733" y="-208.3" font-family="Arial" font-size="14.00" fill="#666666">[BASE TABLE]</text>
<polygon fill="none" stroke="#000000" points="61.5,-165.5 61.5,-195.5 241.5,-195.5 241.5,-165.5 61.5,-165.5"/>
<text text-anchor="start" x="68.5" y="-176.9" font-family="Arial" font-size="14.00" fill="#000000">id </text>
<text text-anchor="start" x="83.2798" y="-176.9" font-family="Arial" font-size="14.00" fill="#666666">[bigint unsigned]</text>
<polygon fill="none" stroke="#000000" points="61.5,-135.5 61.5,-165.5 241.5,-165.5 241.5,-135.5 61.5,-135.5"/>
<text text-anchor="start" x="68.5" y="-146.9" font-family="Arial" font-size="14.00" fill="#000000">name </text>
<text text-anchor="start" x="107.399" y="-146.9" font-family="Arial" font-size="14.00" fill="#666666">[varchar(255)]</text>
<polygon fill="none" stroke="#000000" points="61.5,-105.5 61.5,-135.5 241.5,-135.5 241.5,-105.5 61.5,-105.5"/>
<text text-anchor="start" x="68.5" y="-116.9" font-family="Arial" font-size="14.00" fill="#000000">price </text>
<text text-anchor="start" x="102.723" y="-116.9" font-family="Arial" font-size="14.00" fill="#666666">[int]</text>
<polygon fill="none" stroke="#000000" points="61.5,-75.5 61.5,-105.5 241.5,-105.5 241.5,-75.5 61.5,-75.5"/>
<text text-anchor="start" x="68.5" y="-86.9" font-family="Arial" font-size="14.00" fill="#000000">created_at </text>
<text text-anchor="start" x="138.528" y="-86.9" font-family="Arial" font-size="14.00" fill="#666666">[timestamp]</text>
<polygon fill="none" stroke="#000000" points="61.5,-45.5 61.5,-75.5 241.5,-75.5 241.5,-45.5 61.5,-45.5"/>
<text text-anchor="start" x="68.5" y="-56.9" font-family="Arial" font-size="14.00" fill="#000000">updated_at </text>
<text text-anchor="start" x="142.4326" y="-56.9" font-family="Arial" font-size="14.00" fill="#666666">[timestamp]</text>
<polygon fill="none" stroke="#000000" stroke-width="3" points="60,-44.5 60,-232.5 243,-232.5 243,-44.5 60,-44.5"/>
</g>
<!-- order_details -->
<g id="node2" class="node">
<title>order_details</title>
<polygon fill="#efefef" stroke="transparent" points="43.5,-565.5 43.5,-600.5 258.5,-600.5 258.5,-565.5 43.5,-565.5"/>
<polygon fill="none" stroke="#000000" points="43.5,-565.5 43.5,-600.5 258.5,-600.5 258.5,-565.5 43.5,-565.5"/>
<text text-anchor="start" x="50.3639" y="-578.3" font-family="Arial Bold" font-size="18.00" fill="#000000">order_details</text>
<text text-anchor="start" x="154.3823" y="-578.3" font-family="Arial" font-size="14.00" fill="#000000"> </text>
<text text-anchor="start" x="158.2729" y="-578.3" font-family="Arial" font-size="14.00" fill="#666666">[BASE TABLE]</text>
<polygon fill="none" stroke="#000000" points="43.5,-535.5 43.5,-565.5 258.5,-565.5 258.5,-535.5 43.5,-535.5"/>
<text text-anchor="start" x="50.5" y="-546.9" font-family="Arial" font-size="14.00" fill="#000000">id </text>
<text text-anchor="start" x="65.2798" y="-546.9" font-family="Arial" font-size="14.00" fill="#666666">[bigint unsigned]</text>
<polygon fill="none" stroke="#000000" points="43.5,-505.5 43.5,-535.5 258.5,-535.5 258.5,-505.5 43.5,-505.5"/>
<text text-anchor="start" x="50.5" y="-516.9" font-family="Arial" font-size="14.00" fill="#000000">order_id </text>
<text text-anchor="start" x="105.7314" y="-516.9" font-family="Arial" font-size="14.00" fill="#666666">[bigint unsigned]</text>
<polygon fill="none" stroke="#000000" points="43.5,-475.5 43.5,-505.5 258.5,-505.5 258.5,-475.5 43.5,-475.5"/>
<text text-anchor="start" x="50.5" y="-486.9" font-family="Arial" font-size="14.00" fill="#000000">product_id </text>
<text text-anchor="start" x="119.744" y="-486.9" font-family="Arial" font-size="14.00" fill="#666666">[bigint unsigned]</text>
<polygon fill="none" stroke="#000000" points="43.5,-445.5 43.5,-475.5 258.5,-475.5 258.5,-445.5 43.5,-445.5"/>
<text text-anchor="start" x="50.5" y="-456.9" font-family="Arial" font-size="14.00" fill="#000000">line_id </text>
<text text-anchor="start" x="94.8408" y="-456.9" font-family="Arial" font-size="14.00" fill="#666666">[int]</text>
<polygon fill="none" stroke="#000000" points="43.5,-415.5 43.5,-445.5 258.5,-445.5 258.5,-415.5 43.5,-415.5"/>
<text text-anchor="start" x="50.5" y="-426.9" font-family="Arial" font-size="14.00" fill="#000000">quantity </text>
<text text-anchor="start" x="103.4088" y="-426.9" font-family="Arial" font-size="14.00" fill="#666666">[int]</text>
<polygon fill="none" stroke="#000000" points="43.5,-385.5 43.5,-415.5 258.5,-415.5 258.5,-385.5 43.5,-385.5"/>
<text text-anchor="start" x="50.5" y="-396.9" font-family="Arial" font-size="14.00" fill="#000000">created_at </text>
<text text-anchor="start" x="120.528" y="-396.9" font-family="Arial" font-size="14.00" fill="#666666">[timestamp]</text>
<polygon fill="none" stroke="#000000" points="43.5,-355.5 43.5,-385.5 258.5,-385.5 258.5,-355.5 43.5,-355.5"/>
<text text-anchor="start" x="50.5" y="-366.9" font-family="Arial" font-size="14.00" fill="#000000">updated_at </text>
<text text-anchor="start" x="124.4326" y="-366.9" font-family="Arial" font-size="14.00" fill="#666666">[timestamp]</text>
</g>
<!-- order_details&#45;&gt;products -->
<g id="edge1" class="edge">
<title>order_details:product_id&#45;&gt;products:id</title>
<path fill="none" stroke="#000000" d="M268.4899,-489.8079C334.7955,-480.11 306.7513,-370.8679 258.5,-313 201.5005,-244.6404 118.4995,-345.3596 61.5,-277 34.0338,-244.0597 18.6111,-180.5 61.5,-180.5"/>
<polygon fill="#000000" stroke="#000000" points="268.4761,-489.8088 258.189,-486.0108 263.488,-490.1544 258.5,-490.5 258.5,-490.5 258.5,-490.5 263.488,-490.1544 258.811,-494.9892 268.4761,-489.8088 268.4761,-489.8088"/>
<text text-anchor="start" x="265.548" y="-500.5" font-family="Arial" font-size="10.00" fill="#000000">FOREIGN KEY (product_id) REFERENCES products (id)</text>
</g>
</g>
</svg>
