<?xml version="1.0" encoding="UTF-8" standalone="no"?>
<!DOCTYPE svg PUBLIC "-//W3C//DTD SVG 1.1//EN"
 "http://www.w3.org/Graphics/SVG/1.1/DTD/svg11.dtd">
<!-- Generated by graphviz version 2.40.1 (20161225.0304)
 -->
<!-- Title: laravel_todoapp Pages: 1 -->
<svg width="1673pt" height="1283pt"
 viewBox="0.00 0.00 1673.00 1283.00" xmlns="http://www.w3.org/2000/svg" xmlns:xlink="http://www.w3.org/1999/xlink">
<g id="graph0" class="graph" transform="scale(1 1) rotate(0) translate(4 1279)">
<title>laravel_todoapp</title>
<polygon fill="#ffffff" stroke="transparent" points="-4,4 -4,-1279 1669,-1279 1669,4 -4,4"/>
<!-- failed_jobs -->
<g id="node1" class="node">
<title>failed_jobs</title>
<polygon fill="#efefef" stroke="transparent" points="43.5,-1151.5 43.5,-1186.5 240.5,-1186.5 240.5,-1151.5 43.5,-1151.5"/>
<polygon fill="none" stroke="#000000" points="43.5,-1151.5 43.5,-1186.5 240.5,-1186.5 240.5,-1151.5 43.5,-1151.5"/>
<text text-anchor="start" x="50.3621" y="-1164.3" font-family="Arial Bold" font-size="18.00" fill="#000000">failed_jobs</text>
<text text-anchor="start" x="136.3841" y="-1164.3" font-family="Arial" font-size="14.00" fill="#000000"> </text>
<text text-anchor="start" x="140.2747" y="-1164.3" font-family="Arial" font-size="14.00" fill="#666666">[BASE TABLE]</text>
<polygon fill="none" stroke="#000000" points="43.5,-1121.5 43.5,-1151.5 240.5,-1151.5 240.5,-1121.5 43.5,-1121.5"/>
<text text-anchor="start" x="50.5" y="-1132.9" font-family="Arial" font-size="14.00" fill="#000000">id </text>
<text text-anchor="start" x="65.2798" y="-1132.9" font-family="Arial" font-size="14.00" fill="#666666">[bigint unsigned]</text>
<polygon fill="none" stroke="#000000" points="43.5,-1091.5 43.5,-1121.5 240.5,-1121.5 240.5,-1091.5 43.5,-1091.5"/>
<text text-anchor="start" x="50.5" y="-1102.9" font-family="Arial" font-size="14.00" fill="#000000">uuid </text>
<text text-anchor="start" x="80.845" y="-1102.9" font-family="Arial" font-size="14.00" fill="#666666">[varchar(255)]</text>
<polygon fill="none" stroke="#000000" points="43.5,-1061.5 43.5,-1091.5 240.5,-1091.5 240.5,-1061.5 43.5,-1061.5"/>
<text text-anchor="start" x="50.5" y="-1072.9" font-family="Arial" font-size="14.00" fill="#000000">connection </text>
<text text-anchor="start" x="122.0834" y="-1072.9" font-family="Arial" font-size="14.00" fill="#666666">[text]</text>
<polygon fill="none" stroke="#000000" points="43.5,-1031.5 43.5,-1061.5 240.5,-1061.5 240.5,-1031.5 43.5,-1031.5"/>
<text text-anchor="start" x="50.5" y="-1042.9" font-family="Arial" font-size="14.00" fill="#000000">queue </text>
<text text-anchor="start" x="93.3036" y="-1042.9" font-family="Arial" font-size="14.00" fill="#666666">[text]</text>
<polygon fill="none" stroke="#000000" points="43.5,-1001.5 43.5,-1031.5 240.5,-1031.5 240.5,-1001.5 43.5,-1001.5"/>
<text text-anchor="start" x="50.5" y="-1012.9" font-family="Arial" font-size="14.00" fill="#000000">payload </text>
<text text-anchor="start" x="103.4102" y="-1012.9" font-family="Arial" font-size="14.00" fill="#666666">[longtext]</text>
<polygon fill="none" stroke="#000000" points="43.5,-971.5 43.5,-1001.5 240.5,-1001.5 240.5,-971.5 43.5,-971.5"/>
<text text-anchor="start" x="50.5" y="-982.9" font-family="Arial" font-size="14.00" fill="#000000">exception </text>
<text text-anchor="start" x="114.3008" y="-982.9" font-family="Arial" font-size="14.00" fill="#666666">[longtext]</text>
<polygon fill="none" stroke="#000000" points="43.5,-941.5 43.5,-971.5 240.5,-971.5 240.5,-941.5 43.5,-941.5"/>
<text text-anchor="start" x="50.5" y="-952.9" font-family="Arial" font-size="14.00" fill="#000000">failed_at </text>
<text text-anchor="start" x="107.298" y="-952.9" font-family="Arial" font-size="14.00" fill="#666666">[timestamp]</text>
</g>
<!-- migrations -->
<g id="node2" class="node">
<title>migrations</title>
<polygon fill="#efefef" stroke="transparent" points="344.5,-1091.5 344.5,-1126.5 538.5,-1126.5 538.5,-1091.5 344.5,-1091.5"/>
<polygon fill="none" stroke="#000000" points="344.5,-1091.5 344.5,-1126.5 538.5,-1126.5 538.5,-1091.5 344.5,-1091.5"/>
<text text-anchor="start" x="351.3732" y="-1104.3" font-family="Arial Bold" font-size="18.00" fill="#000000">migrations</text>
<text text-anchor="start" x="434.373" y="-1104.3" font-family="Arial" font-size="14.00" fill="#000000"> </text>
<text text-anchor="start" x="438.2636" y="-1104.3" font-family="Arial" font-size="14.00" fill="#666666">[BASE TABLE]</text>
<polygon fill="none" stroke="#000000" points="344.5,-1061.5 344.5,-1091.5 538.5,-1091.5 538.5,-1061.5 344.5,-1061.5"/>
<text text-anchor="start" x="351.5" y="-1072.9" font-family="Arial" font-size="14.00" fill="#000000">id </text>
<text text-anchor="start" x="366.2798" y="-1072.9" font-family="Arial" font-size="14.00" fill="#666666">[int unsigned]</text>
<polygon fill="none" stroke="#000000" points="344.5,-1031.5 344.5,-1061.5 538.5,-1061.5 538.5,-1031.5 344.5,-1031.5"/>
<text text-anchor="start" x="351.5" y="-1042.9" font-family="Arial" font-size="14.00" fill="#000000">migration </text>
<text text-anchor="start" x="412.946" y="-1042.9" font-family="Arial" font-size="14.00" fill="#666666">[varchar(255)]</text>
<polygon fill="none" stroke="#000000" points="344.5,-1001.5 344.5,-1031.5 538.5,-1031.5 538.5,-1001.5 344.5,-1001.5"/>
<text text-anchor="start" x="351.5" y="-1012.9" font-family="Arial" font-size="14.00" fill="#000000">batch </text>
<text text-anchor="start" x="389.629" y="-1012.9" font-family="Arial" font-size="14.00" fill="#666666">[int]</text>
</g>
<!-- order_details -->
<g id="node3" class="node">
<title>order_details</title>
<polygon fill="#efefef" stroke="transparent" points="643.5,-1151.5 643.5,-1186.5 858.5,-1186.5 858.5,-1151.5 643.5,-1151.5"/>
<polygon fill="none" stroke="#000000" points="643.5,-1151.5 643.5,-1186.5 858.5,-1186.5 858.5,-1151.5 643.5,-1151.5"/>
<text text-anchor="start" x="650.3639" y="-1164.3" font-family="Arial Bold" font-size="18.00" fill="#000000">order_details</text>
<text text-anchor="start" x="754.3823" y="-1164.3" font-family="Arial" font-size="14.00" fill="#000000"> </text>
<text text-anchor="start" x="758.2729" y="-1164.3" font-family="Arial" font-size="14.00" fill="#666666">[BASE TABLE]</text>
<polygon fill="none" stroke="#000000" points="643.5,-1121.5 643.5,-1151.5 858.5,-1151.5 858.5,-1121.5 643.5,-1121.5"/>
<text text-anchor="start" x="650.5" y="-1132.9" font-family="Arial" font-size="14.00" fill="#000000">id </text>
<text text-anchor="start" x="665.2798" y="-1132.9" font-family="Arial" font-size="14.00" fill="#666666">[bigint unsigned]</text>
<polygon fill="none" stroke="#000000" points="643.5,-1091.5 643.5,-1121.5 858.5,-1121.5 858.5,-1091.5 643.5,-1091.5"/>
<text text-anchor="start" x="650.5" y="-1102.9" font-family="Arial" font-size="14.00" fill="#000000">order_id </text>
<text text-anchor="start" x="705.7314" y="-1102.9" font-family="Arial" font-size="14.00" fill="#666666">[bigint unsigned]</text>
<polygon fill="none" stroke="#000000" points="643.5,-1061.5 643.5,-1091.5 858.5,-1091.5 858.5,-1061.5 643.5,-1061.5"/>
<text text-anchor="start" x="650.5" y="-1072.9" font-family="Arial" font-size="14.00" fill="#000000">product_id </text>
<text text-anchor="start" x="719.744" y="-1072.9" font-family="Arial" font-size="14.00" fill="#666666">[bigint unsigned]</text>
<polygon fill="none" stroke="#000000" points="643.5,-1031.5 643.5,-1061.5 858.5,-1061.5 858.5,-1031.5 643.5,-1031.5"/>
<text text-anchor="start" x="650.5" y="-1042.9" font-family="Arial" font-size="14.00" fill="#000000">line_id </text>
<text text-anchor="start" x="694.8408" y="-1042.9" font-family="Arial" font-size="14.00" fill="#666666">[int]</text>
<polygon fill="none" stroke="#000000" points="643.5,-1001.5 643.5,-1031.5 858.5,-1031.5 858.5,-1001.5 643.5,-1001.5"/>
<text text-anchor="start" x="650.5" y="-1012.9" font-family="Arial" font-size="14.00" fill="#000000">quantity </text>
<text text-anchor="start" x="703.4088" y="-1012.9" font-family="Arial" font-size="14.00" fill="#666666">[int]</text>
<polygon fill="none" stroke="#000000" points="643.5,-971.5 643.5,-1001.5 858.5,-1001.5 858.5,-971.5 643.5,-971.5"/>
<text text-anchor="start" x="650.5" y="-982.9" font-family="Arial" font-size="14.00" fill="#000000">created_at </text>
<text text-anchor="start" x="720.528" y="-982.9" font-family="Arial" font-size="14.00" fill="#666666">[timestamp]</text>
<polygon fill="none" stroke="#000000" points="643.5,-941.5 643.5,-971.5 858.5,-971.5 858.5,-941.5 643.5,-941.5"/>
<text text-anchor="start" x="650.5" y="-952.9" font-family="Arial" font-size="14.00" fill="#000000">updated_at </text>
<text text-anchor="start" x="724.4326" y="-952.9" font-family="Arial" font-size="14.00" fill="#666666">[timestamp]</text>
</g>
<!-- orders -->
<g id="node4" class="node">
<title>orders</title>
<polygon fill="#efefef" stroke="transparent" points="530.5,-739.5 530.5,-774.5 695.5,-774.5 695.5,-739.5 530.5,-739.5"/>
<polygon fill="none" stroke="#000000" points="530.5,-739.5 530.5,-774.5 695.5,-774.5 695.5,-739.5 530.5,-739.5"/>
<text text-anchor="start" x="538.8716" y="-752.3" font-family="Arial Bold" font-size="18.00" fill="#000000">orders</text>
<text text-anchor="start" x="589.8746" y="-752.3" font-family="Arial" font-size="14.00" fill="#000000"> </text>
<text text-anchor="start" x="593.7652" y="-752.3" font-family="Arial" font-size="14.00" fill="#666666">[BASE TABLE]</text>
<polygon fill="none" stroke="#000000" points="530.5,-709.5 530.5,-739.5 695.5,-739.5 695.5,-709.5 530.5,-709.5"/>
<text text-anchor="start" x="537.5" y="-720.9" font-family="Arial" font-size="14.00" fill="#000000">id </text>
<text text-anchor="start" x="552.2798" y="-720.9" font-family="Arial" font-size="14.00" fill="#666666">[bigint unsigned]</text>
<polygon fill="none" stroke="#000000" points="530.5,-679.5 530.5,-709.5 695.5,-709.5 695.5,-679.5 530.5,-679.5"/>
<text text-anchor="start" x="537.1431" y="-690.9" font-family="Arial" font-size="14.00" fill="#000000">user_id </text>
<text text-anchor="start" x="586.9313" y="-690.9" font-family="Arial" font-size="14.00" fill="#666666">[bigint unsigned]</text>
<polygon fill="none" stroke="#000000" points="530.5,-649.5 530.5,-679.5 695.5,-679.5 695.5,-649.5 530.5,-649.5"/>
<text text-anchor="start" x="537.5" y="-660.9" font-family="Arial" font-size="14.00" fill="#000000">order_date </text>
<text text-anchor="start" x="609.0806" y="-660.9" font-family="Arial" font-size="14.00" fill="#666666">[date]</text>
<polygon fill="none" stroke="#000000" points="530.5,-619.5 530.5,-649.5 695.5,-649.5 695.5,-619.5 530.5,-619.5"/>
<text text-anchor="start" x="537.5" y="-630.9" font-family="Arial" font-size="14.00" fill="#000000">status </text>
<text text-anchor="start" x="578.737" y="-630.9" font-family="Arial" font-size="14.00" fill="#666666">[int]</text>
<polygon fill="none" stroke="#000000" points="530.5,-589.5 530.5,-619.5 695.5,-619.5 695.5,-589.5 530.5,-589.5"/>
<text text-anchor="start" x="537.5" y="-600.9" font-family="Arial" font-size="14.00" fill="#000000">total_price </text>
<text text-anchor="start" x="605.9586" y="-600.9" font-family="Arial" font-size="14.00" fill="#666666">[int]</text>
<polygon fill="none" stroke="#000000" points="530.5,-559.5 530.5,-589.5 695.5,-589.5 695.5,-559.5 530.5,-559.5"/>
<text text-anchor="start" x="537.5" y="-570.9" font-family="Arial" font-size="14.00" fill="#000000">memo </text>
<text text-anchor="start" x="580.277" y="-570.9" font-family="Arial" font-size="14.00" fill="#666666">[varchar(255)]</text>
<polygon fill="none" stroke="#000000" points="530.5,-529.5 530.5,-559.5 695.5,-559.5 695.5,-529.5 530.5,-529.5"/>
<text text-anchor="start" x="537.5" y="-540.9" font-family="Arial" font-size="14.00" fill="#000000">created_at </text>
<text text-anchor="start" x="607.528" y="-540.9" font-family="Arial" font-size="14.00" fill="#666666">[timestamp]</text>
<polygon fill="none" stroke="#000000" points="530.5,-499.5 530.5,-529.5 695.5,-529.5 695.5,-499.5 530.5,-499.5"/>
<text text-anchor="start" x="537.5" y="-510.9" font-family="Arial" font-size="14.00" fill="#000000">updated_at </text>
<text text-anchor="start" x="611.4326" y="-510.9" font-family="Arial" font-size="14.00" fill="#666666">[timestamp]</text>
</g>
<!-- order_details&#45;&gt;orders -->
<g id="edge1" class="edge">
<title>order_details:order_id&#45;&gt;orders:id</title>
<path fill="none" stroke="#000000" d="M633.4063,-1105.9641C556.393,-1097.2491 618.5536,-984.0361 643.5,-899 655.5425,-857.95 683.4575,-859.05 695.5,-818 707.1979,-778.1249 737.0556,-724.5 695.5,-724.5"/>
<polygon fill="#000000" stroke="#000000" points="633.5141,-1105.9698 643.2614,-1110.9937 638.507,-1106.2349 643.5,-1106.5 643.5,-1106.5 643.5,-1106.5 638.507,-1106.2349 643.7386,-1102.0063 633.5141,-1105.9698 633.5141,-1105.9698"/>
<text text-anchor="start" x="403.557" y="-1116.5" font-family="Arial" font-size="10.00" fill="#000000">FOREIGN KEY (order_id) REFERENCES orders (id)</text>
</g>
<!-- products -->
<g id="node7" class="node">
<title>products</title>
<polygon fill="#efefef" stroke="transparent" points="799.5,-694.5 799.5,-729.5 979.5,-729.5 979.5,-694.5 799.5,-694.5"/>
<polygon fill="none" stroke="#000000" points="799.5,-694.5 799.5,-729.5 979.5,-729.5 979.5,-694.5 799.5,-694.5"/>
<text text-anchor="start" x="806.3635" y="-707.3" font-family="Arial Bold" font-size="18.00" fill="#000000">products</text>
<text text-anchor="start" x="875.3827" y="-707.3" font-family="Arial" font-size="14.00" fill="#000000"> </text>
<text text-anchor="start" x="879.2733" y="-707.3" font-family="Arial" font-size="14.00" fill="#666666">[BASE TABLE]</text>
<polygon fill="none" stroke="#000000" points="799.5,-664.5 799.5,-694.5 979.5,-694.5 979.5,-664.5 799.5,-664.5"/>
<text text-anchor="start" x="806.5" y="-675.9" font-family="Arial" font-size="14.00" fill="#000000">id </text>
<text text-anchor="start" x="821.2798" y="-675.9" font-family="Arial" font-size="14.00" fill="#666666">[bigint unsigned]</text>
<polygon fill="none" stroke="#000000" points="799.5,-634.5 799.5,-664.5 979.5,-664.5 979.5,-634.5 799.5,-634.5"/>
<text text-anchor="start" x="806.5" y="-645.9" font-family="Arial" font-size="14.00" fill="#000000">name </text>
<text text-anchor="start" x="845.399" y="-645.9" font-family="Arial" font-size="14.00" fill="#666666">[varchar(255)]</text>
<polygon fill="none" stroke="#000000" points="799.5,-604.5 799.5,-634.5 979.5,-634.5 979.5,-604.5 799.5,-604.5"/>
<text text-anchor="start" x="806.5" y="-615.9" font-family="Arial" font-size="14.00" fill="#000000">price </text>
<text text-anchor="start" x="840.723" y="-615.9" font-family="Arial" font-size="14.00" fill="#666666">[int]</text>
<polygon fill="none" stroke="#000000" points="799.5,-574.5 799.5,-604.5 979.5,-604.5 979.5,-574.5 799.5,-574.5"/>
<text text-anchor="start" x="806.5" y="-585.9" font-family="Arial" font-size="14.00" fill="#000000">created_at </text>
<text text-anchor="start" x="876.528" y="-585.9" font-family="Arial" font-size="14.00" fill="#666666">[timestamp]</text>
<polygon fill="none" stroke="#000000" points="799.5,-544.5 799.5,-574.5 979.5,-574.5 979.5,-544.5 799.5,-544.5"/>
<text text-anchor="start" x="806.5" y="-555.9" font-family="Arial" font-size="14.00" fill="#000000">updated_at </text>
<text text-anchor="start" x="880.4326" y="-555.9" font-family="Arial" font-size="14.00" fill="#666666">[timestamp]</text>
</g>
<!-- order_details&#45;&gt;products -->
<g id="edge2" class="edge">
<title>order_details:product_id&#45;&gt;products:id</title>
<path fill="none" stroke="#000000" d="M868.6858,-1075.8503C931.6976,-1067.1302 874.8329,-972.3956 858.5,-899 845.0682,-838.6411 812.9318,-833.3589 799.5,-773 790.4733,-732.4367 757.9444,-679.5 799.5,-679.5"/>
<polygon fill="#000000" stroke="#000000" points="868.4797,-1075.8634 858.2135,-1072.0091 863.4899,-1076.1817 858.5,-1076.5 858.5,-1076.5 858.5,-1076.5 863.4899,-1076.1817 858.7865,-1080.9909 868.4797,-1075.8634 868.4797,-1075.8634"/>
<text text-anchor="start" x="865.548" y="-1086.5" font-family="Arial" font-size="10.00" fill="#000000">FOREIGN KEY (product_id) REFERENCES products (id)</text>
</g>
<!-- users -->
<g id="node8" class="node">
<title>users</title>
<polygon fill="#efefef" stroke="transparent" points="499.5,-342.5 499.5,-377.5 727.5,-377.5 727.5,-342.5 499.5,-342.5"/>
<polygon fill="none" stroke="#000000" points="499.5,-342.5 499.5,-377.5 727.5,-377.5 727.5,-342.5 499.5,-342.5"/>
<text text-anchor="start" x="542.8708" y="-355.3" font-family="Arial Bold" font-size="18.00" fill="#000000">users</text>
<text text-anchor="start" x="586.8754" y="-355.3" font-family="Arial" font-size="14.00" fill="#000000"> </text>
<text text-anchor="start" x="590.766" y="-355.3" font-family="Arial" font-size="14.00" fill="#666666">[BASE TABLE]</text>
<polygon fill="none" stroke="#000000" points="499.5,-312.5 499.5,-342.5 727.5,-342.5 727.5,-312.5 499.5,-312.5"/>
<text text-anchor="start" x="506.5" y="-323.9" font-family="Arial" font-size="14.00" fill="#000000">id </text>
<text text-anchor="start" x="521.2798" y="-323.9" font-family="Arial" font-size="14.00" fill="#666666">[bigint unsigned]</text>
<polygon fill="none" stroke="#000000" points="499.5,-282.5 499.5,-312.5 727.5,-312.5 727.5,-282.5 499.5,-282.5"/>
<text text-anchor="start" x="506.5" y="-293.9" font-family="Arial" font-size="14.00" fill="#000000">first_name </text>
<text text-anchor="start" x="575.73" y="-293.9" font-family="Arial" font-size="14.00" fill="#666666">[varchar(255)]</text>
<polygon fill="none" stroke="#000000" points="499.5,-252.5 499.5,-282.5 727.5,-282.5 727.5,-252.5 499.5,-252.5"/>
<text text-anchor="start" x="506.5" y="-263.9" font-family="Arial" font-size="14.00" fill="#000000">last_name </text>
<text text-anchor="start" x="574.9614" y="-263.9" font-family="Arial" font-size="14.00" fill="#666666">[varchar(255)]</text>
<polygon fill="none" stroke="#000000" points="499.5,-222.5 499.5,-252.5 727.5,-252.5 727.5,-222.5 499.5,-222.5"/>
<text text-anchor="start" x="506.1487" y="-233.9" font-family="Arial" font-size="14.00" fill="#000000">first_name_furigana </text>
<text text-anchor="start" x="633.7321" y="-233.9" font-family="Arial" font-size="14.00" fill="#666666">[varchar(255)]</text>
<polygon fill="none" stroke="#000000" points="499.5,-192.5 499.5,-222.5 727.5,-222.5 727.5,-192.5 499.5,-192.5"/>
<text text-anchor="start" x="506.5" y="-203.9" font-family="Arial" font-size="14.00" fill="#000000">last_name_furigana </text>
<text text-anchor="start" x="633.3148" y="-203.9" font-family="Arial" font-size="14.00" fill="#666666">[varchar(255)]</text>
<polygon fill="none" stroke="#000000" points="499.5,-162.5 499.5,-192.5 727.5,-192.5 727.5,-162.5 499.5,-162.5"/>
<text text-anchor="start" x="506.5" y="-173.9" font-family="Arial" font-size="14.00" fill="#000000">age </text>
<text text-anchor="start" x="533.7384" y="-173.9" font-family="Arial" font-size="14.00" fill="#666666">[int]</text>
<polygon fill="none" stroke="#000000" points="499.5,-132.5 499.5,-162.5 727.5,-162.5 727.5,-132.5 499.5,-132.5"/>
<text text-anchor="start" x="506.5" y="-143.9" font-family="Arial" font-size="14.00" fill="#000000">email </text>
<text text-anchor="start" x="543.8296" y="-143.9" font-family="Arial" font-size="14.00" fill="#666666">[varchar(255)]</text>
<polygon fill="none" stroke="#000000" points="499.5,-102.5 499.5,-132.5 727.5,-132.5 727.5,-102.5 499.5,-102.5"/>
<text text-anchor="start" x="506.5" y="-113.9" font-family="Arial" font-size="14.00" fill="#000000">remember_token </text>
<text text-anchor="start" x="616.1844" y="-113.9" font-family="Arial" font-size="14.00" fill="#666666">[varchar(100)]</text>
<polygon fill="none" stroke="#000000" points="499.5,-72.5 499.5,-102.5 727.5,-102.5 727.5,-72.5 499.5,-72.5"/>
<text text-anchor="start" x="506.5" y="-83.9" font-family="Arial" font-size="14.00" fill="#000000">created_at </text>
<text text-anchor="start" x="576.528" y="-83.9" font-family="Arial" font-size="14.00" fill="#666666">[timestamp]</text>
<polygon fill="none" stroke="#000000" points="499.5,-42.5 499.5,-72.5 727.5,-72.5 727.5,-42.5 499.5,-42.5"/>
<text text-anchor="start" x="506.5" y="-53.9" font-family="Arial" font-size="14.00" fill="#000000">updated_at </text>
<text text-anchor="start" x="580.4326" y="-53.9" font-family="Arial" font-size="14.00" fill="#666666">[timestamp]</text>
</g>
<!-- orders&#45;&gt;users -->
<g id="edge3" class="edge">
<title>orders:user_id&#45;&gt;users:id</title>
<path fill="none" stroke="#000000" d="M705.3356,-691.8518C745.6115,-668.3042 726.9716,-494.7786 695.5,-457 638.8111,-388.9506 556.1889,-489.0494 499.5,-421 472.902,-389.0718 457.9444,-327.5 499.5,-327.5"/>
<polygon fill="#000000" stroke="#000000" points="705.1561,-691.9001 694.33,-690.1547 700.3281,-693.2 695.5,-694.5 695.5,-694.5 695.5,-694.5 700.3281,-693.2 696.67,-698.8453 705.1561,-691.9001 705.1561,-691.9001"/>
<text text-anchor="start" x="462.445" y="-704.5" font-family="Arial" font-size="10.00" fill="#000000">FOREIGN KEY (user_id) REFERENCES users (id)</text>
</g>
<!-- password_resets -->
<g id="node5" class="node">
<title>password_resets</title>
<polygon fill="#efefef" stroke="transparent" points="962.5,-1091.5 962.5,-1126.5 1209.5,-1126.5 1209.5,-1091.5 962.5,-1091.5"/>
<polygon fill="none" stroke="#000000" points="962.5,-1091.5 962.5,-1126.5 1209.5,-1126.5 1209.5,-1091.5 962.5,-1091.5"/>
<text text-anchor="start" x="969.361" y="-1104.3" font-family="Arial Bold" font-size="18.00" fill="#000000">password_resets</text>
<text text-anchor="start" x="1105.3852" y="-1104.3" font-family="Arial" font-size="14.00" fill="#000000"> </text>
<text text-anchor="start" x="1109.2758" y="-1104.3" font-family="Arial" font-size="14.00" fill="#666666">[BASE TABLE]</text>
<polygon fill="none" stroke="#000000" points="962.5,-1061.5 962.5,-1091.5 1209.5,-1091.5 1209.5,-1061.5 962.5,-1061.5"/>
<text text-anchor="start" x="969.5" y="-1072.9" font-family="Arial" font-size="14.00" fill="#000000">email </text>
<text text-anchor="start" x="1006.8296" y="-1072.9" font-family="Arial" font-size="14.00" fill="#666666">[varchar(255)]</text>
<polygon fill="none" stroke="#000000" points="962.5,-1031.5 962.5,-1061.5 1209.5,-1061.5 1209.5,-1031.5 962.5,-1031.5"/>
<text text-anchor="start" x="969.5" y="-1042.9" font-family="Arial" font-size="14.00" fill="#000000">token </text>
<text text-anchor="start" x="1007.629" y="-1042.9" font-family="Arial" font-size="14.00" fill="#666666">[varchar(255)]</text>
<polygon fill="none" stroke="#000000" points="962.5,-1001.5 962.5,-1031.5 1209.5,-1031.5 1209.5,-1001.5 962.5,-1001.5"/>
<text text-anchor="start" x="969.5" y="-1012.9" font-family="Arial" font-size="14.00" fill="#000000">created_at </text>
<text text-anchor="start" x="1039.528" y="-1012.9" font-family="Arial" font-size="14.00" fill="#666666">[timestamp]</text>
</g>
<!-- personal_access_tokens -->
<g id="node6" class="node">
<title>personal_access_tokens</title>
<polygon fill="#efefef" stroke="transparent" points="1313.5,-1196.5 1313.5,-1231.5 1622.5,-1231.5 1622.5,-1196.5 1313.5,-1196.5"/>
<polygon fill="none" stroke="#000000" points="1313.5,-1196.5 1313.5,-1231.5 1622.5,-1231.5 1622.5,-1196.5 1313.5,-1196.5"/>
<text text-anchor="start" x="1320.3416" y="-1209.3" font-family="Arial Bold" font-size="18.00" fill="#000000">personal_access_tokens</text>
<text text-anchor="start" x="1518.4046" y="-1209.3" font-family="Arial" font-size="14.00" fill="#000000"> </text>
<text text-anchor="start" x="1522.2952" y="-1209.3" font-family="Arial" font-size="14.00" fill="#666666">[BASE TABLE]</text>
<polygon fill="none" stroke="#000000" points="1313.5,-1166.5 1313.5,-1196.5 1622.5,-1196.5 1622.5,-1166.5 1313.5,-1166.5"/>
<text text-anchor="start" x="1320.5" y="-1177.9" font-family="Arial" font-size="14.00" fill="#000000">id </text>
<text text-anchor="start" x="1335.2798" y="-1177.9" font-family="Arial" font-size="14.00" fill="#666666">[bigint unsigned]</text>
<polygon fill="none" stroke="#000000" points="1313.5,-1136.5 1313.5,-1166.5 1622.5,-1166.5 1622.5,-1136.5 1313.5,-1136.5"/>
<text text-anchor="start" x="1320.5" y="-1147.9" font-family="Arial" font-size="14.00" fill="#000000">tokenable_type </text>
<text text-anchor="start" x="1419.3218" y="-1147.9" font-family="Arial" font-size="14.00" fill="#666666">[varchar(255)]</text>
<polygon fill="none" stroke="#000000" points="1313.5,-1106.5 1313.5,-1136.5 1622.5,-1136.5 1622.5,-1106.5 1313.5,-1106.5"/>
<text text-anchor="start" x="1320.5" y="-1117.9" font-family="Arial" font-size="14.00" fill="#000000">tokenable_id </text>
<text text-anchor="start" x="1403.7552" y="-1117.9" font-family="Arial" font-size="14.00" fill="#666666">[bigint unsigned]</text>
<polygon fill="none" stroke="#000000" points="1313.5,-1076.5 1313.5,-1106.5 1622.5,-1106.5 1622.5,-1076.5 1313.5,-1076.5"/>
<text text-anchor="start" x="1320.5" y="-1087.9" font-family="Arial" font-size="14.00" fill="#000000">name </text>
<text text-anchor="start" x="1359.399" y="-1087.9" font-family="Arial" font-size="14.00" fill="#666666">[varchar(255)]</text>
<polygon fill="none" stroke="#000000" points="1313.5,-1046.5 1313.5,-1076.5 1622.5,-1076.5 1622.5,-1046.5 1313.5,-1046.5"/>
<text text-anchor="start" x="1320.5" y="-1057.9" font-family="Arial" font-size="14.00" fill="#000000">token </text>
<text text-anchor="start" x="1358.629" y="-1057.9" font-family="Arial" font-size="14.00" fill="#666666">[varchar(64)]</text>
<polygon fill="none" stroke="#000000" points="1313.5,-1016.5 1313.5,-1046.5 1622.5,-1046.5 1622.5,-1016.5 1313.5,-1016.5"/>
<text text-anchor="start" x="1320.5" y="-1027.9" font-family="Arial" font-size="14.00" fill="#000000">abilities </text>
<text text-anchor="start" x="1371.0554" y="-1027.9" font-family="Arial" font-size="14.00" fill="#666666">[text]</text>
<polygon fill="none" stroke="#000000" points="1313.5,-986.5 1313.5,-1016.5 1622.5,-1016.5 1622.5,-986.5 1313.5,-986.5"/>
<text text-anchor="start" x="1320.5" y="-997.9" font-family="Arial" font-size="14.00" fill="#000000">last_used_at </text>
<text text-anchor="start" x="1403.7566" y="-997.9" font-family="Arial" font-size="14.00" fill="#666666">[timestamp]</text>
<polygon fill="none" stroke="#000000" points="1313.5,-956.5 1313.5,-986.5 1622.5,-986.5 1622.5,-956.5 1313.5,-956.5"/>
<text text-anchor="start" x="1320.5" y="-967.9" font-family="Arial" font-size="14.00" fill="#000000">expires_at </text>
<text text-anchor="start" x="1388.9614" y="-967.9" font-family="Arial" font-size="14.00" fill="#666666">[timestamp]</text>
<polygon fill="none" stroke="#000000" points="1313.5,-926.5 1313.5,-956.5 1622.5,-956.5 1622.5,-926.5 1313.5,-926.5"/>
<text text-anchor="start" x="1320.5" y="-937.9" font-family="Arial" font-size="14.00" fill="#000000">created_at </text>
<text text-anchor="start" x="1390.528" y="-937.9" font-family="Arial" font-size="14.00" fill="#666666">[timestamp]</text>
<polygon fill="none" stroke="#000000" points="1313.5,-896.5 1313.5,-926.5 1622.5,-926.5 1622.5,-896.5 1313.5,-896.5"/>
<text text-anchor="start" x="1320.5" y="-907.9" font-family="Arial" font-size="14.00" fill="#000000">updated_at </text>
<text text-anchor="start" x="1394.4326" y="-907.9" font-family="Arial" font-size="14.00" fill="#666666">[timestamp]</text>
</g>
</g>
</svg>
