<?xml version="1.0" encoding="UTF-8" standalone="no"?>
<!DOCTYPE svg PUBLIC "-//W3C//DTD SVG 1.1//EN"
 "http://www.w3.org/Graphics/SVG/1.1/DTD/svg11.dtd">
<!-- Generated by graphviz version 2.40.1 (20161225.0304)
 -->
<!-- Title: users Pages: 1 -->
<svg width="490pt" height="832pt"
 viewBox="0.00 0.00 490.00 832.00" xmlns="http://www.w3.org/2000/svg" xmlns:xlink="http://www.w3.org/1999/xlink">
<g id="graph0" class="graph" transform="scale(1 1) rotate(0) translate(4 828)">
<title>users</title>
<polygon fill="#ffffff" stroke="transparent" points="-4,4 -4,-828 486,-828 486,4 -4,4"/>
<!-- users -->
<g id="node1" class="node">
<title>users</title>
<polygon fill="#efefef" stroke="transparent" points="46,-345.5 46,-380.5 274,-380.5 274,-345.5 46,-345.5"/>
<polygon fill="none" stroke="#000000" points="46,-345.5 46,-380.5 274,-380.5 274,-345.5 46,-345.5"/>
<text text-anchor="start" x="89.3708" y="-358.3" font-family="Arial Bold" font-size="18.00" fill="#000000">users</text>
<text text-anchor="start" x="133.3754" y="-358.3" font-family="Arial" font-size="14.00" fill="#000000"> </text>
<text text-anchor="start" x="137.266" y="-358.3" font-family="Arial" font-size="14.00" fill="#666666">[BASE TABLE]</text>
<polygon fill="none" stroke="#000000" points="46,-315.5 46,-345.5 274,-345.5 274,-315.5 46,-315.5"/>
<text text-anchor="start" x="53" y="-326.9" font-family="Arial" font-size="14.00" fill="#000000">id </text>
<text text-anchor="start" x="67.7798" y="-326.9" font-family="Arial" font-size="14.00" fill="#666666">[bigint unsigned]</text>
<polygon fill="none" stroke="#000000" points="46,-285.5 46,-315.5 274,-315.5 274,-285.5 46,-285.5"/>
<text text-anchor="start" x="53" y="-296.9" font-family="Arial" font-size="14.00" fill="#000000">first_name </text>
<text text-anchor="start" x="122.23" y="-296.9" font-family="Arial" font-size="14.00" fill="#666666">[varchar(255)]</text>
<polygon fill="none" stroke="#000000" points="46,-255.5 46,-285.5 274,-285.5 274,-255.5 46,-255.5"/>
<text text-anchor="start" x="53" y="-266.9" font-family="Arial" font-size="14.00" fill="#000000">last_name </text>
<text text-anchor="start" x="121.4614" y="-266.9" font-family="Arial" font-size="14.00" fill="#666666">[varchar(255)]</text>
<polygon fill="none" stroke="#000000" points="46,-225.5 46,-255.5 274,-255.5 274,-225.5 46,-225.5"/>
<text text-anchor="start" x="52.6487" y="-236.9" font-family="Arial" font-size="14.00" fill="#000000">first_name_furigana </text>
<text text-anchor="start" x="180.2321" y="-236.9" font-family="Arial" font-size="14.00" fill="#666666">[varchar(255)]</text>
<polygon fill="none" stroke="#000000" points="46,-195.5 46,-225.5 274,-225.5 274,-195.5 46,-195.5"/>
<text text-anchor="start" x="53" y="-206.9" font-family="Arial" font-size="14.00" fill="#000000">last_name_furigana </text>
<text text-anchor="start" x="179.8148" y="-206.9" font-family="Arial" font-size="14.00" fill="#666666">[varchar(255)]</text>
<polygon fill="none" stroke="#000000" points="46,-165.5 46,-195.5 274,-195.5 274,-165.5 46,-165.5"/>
<text text-anchor="start" x="53" y="-176.9" font-family="Arial" font-size="14.00" fill="#000000">age </text>
<text text-anchor="start" x="80.2384" y="-176.9" font-family="Arial" font-size="14.00" fill="#666666">[int]</text>
<polygon fill="none" stroke="#000000" points="46,-135.5 46,-165.5 274,-165.5 274,-135.5 46,-135.5"/>
<text text-anchor="start" x="53" y="-146.9" font-family="Arial" font-size="14.00" fill="#000000">email </text>
<text text-anchor="start" x="90.3296" y="-146.9" font-family="Arial" font-size="14.00" fill="#666666">[varchar(255)]</text>
<polygon fill="none" stroke="#000000" points="46,-105.5 46,-135.5 274,-135.5 274,-105.5 46,-105.5"/>
<text text-anchor="start" x="53" y="-116.9" font-family="Arial" font-size="14.00" fill="#000000">remember_token </text>
<text text-anchor="start" x="162.6844" y="-116.9" font-family="Arial" font-size="14.00" fill="#666666">[varchar(100)]</text>
<polygon fill="none" stroke="#000000" points="46,-75.5 46,-105.5 274,-105.5 274,-75.5 46,-75.5"/>
<text text-anchor="start" x="53" y="-86.9" font-family="Arial" font-size="14.00" fill="#000000">created_at </text>
<text text-anchor="start" x="123.028" y="-86.9" font-family="Arial" font-size="14.00" fill="#666666">[timestamp]</text>
<polygon fill="none" stroke="#000000" points="46,-45.5 46,-75.5 274,-75.5 274,-45.5 46,-45.5"/>
<text text-anchor="start" x="53" y="-56.9" font-family="Arial" font-size="14.00" fill="#000000">updated_at </text>
<text text-anchor="start" x="126.9326" y="-56.9" font-family="Arial" font-size="14.00" fill="#666666">[timestamp]</text>
<polygon fill="none" stroke="#000000" stroke-width="3" points="44.5,-44.5 44.5,-382.5 275.5,-382.5 275.5,-44.5 44.5,-44.5"/>
</g>
<!-- orders -->
<g id="node2" class="node">
<title>orders</title>
<polygon fill="#efefef" stroke="transparent" points="77,-745.5 77,-780.5 242,-780.5 242,-745.5 77,-745.5"/>
<polygon fill="none" stroke="#000000" points="77,-745.5 77,-780.5 242,-780.5 242,-745.5 77,-745.5"/>
<text text-anchor="start" x="85.3716" y="-758.3" font-family="Arial Bold" font-size="18.00" fill="#000000">orders</text>
<text text-anchor="start" x="136.3746" y="-758.3" font-family="Arial" font-size="14.00" fill="#000000"> </text>
<text text-anchor="start" x="140.2652" y="-758.3" font-family="Arial" font-size="14.00" fill="#666666">[BASE TABLE]</text>
<polygon fill="none" stroke="#000000" points="77,-715.5 77,-745.5 242,-745.5 242,-715.5 77,-715.5"/>
<text text-anchor="start" x="84" y="-726.9" font-family="Arial" font-size="14.00" fill="#000000">id </text>
<text text-anchor="start" x="98.7798" y="-726.9" font-family="Arial" font-size="14.00" fill="#666666">[bigint unsigned]</text>
<polygon fill="none" stroke="#000000" points="77,-685.5 77,-715.5 242,-715.5 242,-685.5 77,-685.5"/>
<text text-anchor="start" x="83.6431" y="-696.9" font-family="Arial" font-size="14.00" fill="#000000">user_id </text>
<text text-anchor="start" x="133.4313" y="-696.9" font-family="Arial" font-size="14.00" fill="#666666">[bigint unsigned]</text>
<polygon fill="none" stroke="#000000" points="77,-655.5 77,-685.5 242,-685.5 242,-655.5 77,-655.5"/>
<text text-anchor="start" x="84" y="-666.9" font-family="Arial" font-size="14.00" fill="#000000">order_date </text>
<text text-anchor="start" x="155.5806" y="-666.9" font-family="Arial" font-size="14.00" fill="#666666">[date]</text>
<polygon fill="none" stroke="#000000" points="77,-625.5 77,-655.5 242,-655.5 242,-625.5 77,-625.5"/>
<text text-anchor="start" x="84" y="-636.9" font-family="Arial" font-size="14.00" fill="#000000">status </text>
<text text-anchor="start" x="125.237" y="-636.9" font-family="Arial" font-size="14.00" fill="#666666">[int]</text>
<polygon fill="none" stroke="#000000" points="77,-595.5 77,-625.5 242,-625.5 242,-595.5 77,-595.5"/>
<text text-anchor="start" x="84" y="-606.9" font-family="Arial" font-size="14.00" fill="#000000">total_price </text>
<text text-anchor="start" x="152.4586" y="-606.9" font-family="Arial" font-size="14.00" fill="#666666">[int]</text>
<polygon fill="none" stroke="#000000" points="77,-565.5 77,-595.5 242,-595.5 242,-565.5 77,-565.5"/>
<text text-anchor="start" x="84" y="-576.9" font-family="Arial" font-size="14.00" fill="#000000">memo </text>
<text text-anchor="start" x="126.777" y="-576.9" font-family="Arial" font-size="14.00" fill="#666666">[varchar(255)]</text>
<polygon fill="none" stroke="#000000" points="77,-535.5 77,-565.5 242,-565.5 242,-535.5 77,-535.5"/>
<text text-anchor="start" x="84" y="-546.9" font-family="Arial" font-size="14.00" fill="#000000">created_at </text>
<text text-anchor="start" x="154.028" y="-546.9" font-family="Arial" font-size="14.00" fill="#666666">[timestamp]</text>
<polygon fill="none" stroke="#000000" points="77,-505.5 77,-535.5 242,-535.5 242,-505.5 77,-505.5"/>
<text text-anchor="start" x="84" y="-516.9" font-family="Arial" font-size="14.00" fill="#000000">updated_at </text>
<text text-anchor="start" x="157.9326" y="-516.9" font-family="Arial" font-size="14.00" fill="#666666">[timestamp]</text>
</g>
<!-- orders&#45;&gt;users -->
<g id="edge1" class="edge">
<title>orders:user_id&#45;&gt;users:id</title>
<path fill="none" stroke="#000000" d="M252.0437,-699.9912C344.9999,-690.1972 307.3184,-541.4083 242,-463 185.3111,-394.9506 102.6889,-495.0494 46,-427 18.5486,-394.0473 3.1111,-330.5 46,-330.5"/>
<polygon fill="#000000" stroke="#000000" points="251.9872,-699.994 241.7723,-696.0058 246.9936,-700.247 242,-700.5 242,-700.5 242,-700.5 246.9936,-700.247 242.2277,-704.9942 251.9872,-699.994 251.9872,-699.994"/>
<text text-anchor="start" x="248.945" y="-710.5" font-family="Arial" font-size="10.00" fill="#000000">FOREIGN KEY (user_id) REFERENCES users (id)</text>
</g>
</g>
</svg>
